<svg width="349" height="261" viewBox="0 0 349 261" fill="none" xmlns="http://www.w3.org/2000/svg">
<rect x="1.5" y="1.5" width="346" height="258" fill="#90E1EF" stroke="white" stroke-width="3"/>
<path d="M163.38 142.942C166.214 142.942 168.701 141.949 170.493 140.226C171.187 139.555 171.187 138.708 170.493 138.095L168.758 136.606C168.064 135.993 167.428 136.022 166.677 136.606C165.78 137.278 164.653 137.686 163.438 137.686C160.894 137.686 158.899 135.759 158.899 133.102C158.899 130.445 160.894 128.518 163.438 128.518C164.653 128.518 165.78 128.927 166.677 129.599C167.428 130.183 168.064 130.212 168.758 129.599L170.493 128.11C171.187 127.496 171.187 126.65 170.493 125.978C168.701 124.256 166.214 123.263 163.467 123.263C157.511 123.263 153 127.467 153 133.102C153 138.737 157.54 142.942 163.38 142.942Z" fill="#1C2E51"/>
<path d="M177.494 136.46H186.169C187.354 136.46 187.586 136.08 187.586 134.971C187.586 132.956 186.805 131.029 185.504 129.715C184.26 128.46 182.294 127.613 179.923 127.613C175.297 127.613 172.03 130.825 172.03 135.234C172.03 139.73 175.355 142.971 180.126 142.971C182.526 142.971 185.215 142.153 186.4 140.84C186.776 140.431 187.007 139.935 186.342 139.263L185.186 138.037C184.578 137.424 184.116 137.686 183.566 138.066C182.699 138.679 181.832 138.971 180.849 138.971C179.143 138.971 177.697 138.066 177.494 136.46ZM179.779 131.467C180.444 131.467 180.993 131.701 181.427 132.11C181.745 132.431 182.005 132.927 182.092 133.511H177.494C177.697 132.256 178.535 131.467 179.779 131.467Z" fill="#1C2E51"/>
<path d="M196.95 142.971C199.581 142.971 201.432 141.949 202.733 140.664C203.109 140.256 203.34 139.759 202.675 139.088L200.825 137.219C200.42 136.81 199.957 136.635 199.263 137.278C198.743 137.745 198.02 138.124 197.21 138.124C195.707 138.124 194.637 136.898 194.637 135.292C194.637 133.686 195.707 132.489 197.21 132.489C198.02 132.489 198.743 132.84 199.263 133.307C199.957 133.949 200.42 133.774 200.825 133.365L202.675 131.496C203.34 130.825 203.109 130.329 202.733 129.92C201.432 128.635 199.581 127.613 196.95 127.613C192.411 127.613 189.027 130.825 189.027 135.292C189.027 139.759 192.411 142.971 196.95 142.971Z" fill="#1C2E51"/>
<path d="M207.918 125.686C209.768 125.686 211.243 124.197 211.243 122.358C211.243 120.489 209.768 119 207.918 119C206.096 119 204.622 120.489 204.622 122.358C204.622 124.197 206.096 125.686 207.918 125.686ZM206.53 142.591H209.335C210.26 142.591 210.78 142.066 210.78 141.132V129.307C210.78 128.372 210.26 127.847 209.335 127.847H206.53C205.605 127.847 205.084 128.372 205.084 129.307V141.132C205.084 142.066 205.605 142.591 206.53 142.591Z" fill="#1C2E51"/>
<path d="M215.312 142.591H218.117C219.042 142.591 219.563 142.066 219.563 141.132V123.204C219.563 122.27 219.042 121.569 218.117 121.745L215.312 122.27C214.387 122.445 213.867 122.796 213.867 123.759V141.132C213.867 142.066 214.387 142.591 215.312 142.591Z" fill="#1C2E51"/>
<path d="M102.097 132.602C103.106 142.929 111.856 151 122.5 151C133.144 151 141.894 142.929 142.903 132.602C143.01 131.503 142.105 130.605 141 130.605H104C102.895 130.605 101.99 131.503 102.097 132.602Z" fill="#F89E96"/>
<path d="M120.502 110.096C110.118 111.095 102 119.802 102 130.395C102 140.988 110.118 149.695 120.502 150.694C121.602 150.8 122.5 149.895 122.5 148.79V112C122.5 110.895 121.602 109.99 120.502 110.096Z" fill="#F35E4F"/>
</svg>
