<svg width="349" height="261" viewBox="0 0 349 261" fill="none" xmlns="http://www.w3.org/2000/svg">
<rect x="1.5" y="1.5" width="346" height="258" fill="#212224" stroke="white" stroke-width="3"/>
<path d="M173.858 133.293C172.556 134.694 170.751 135.573 168.758 135.587C164.803 135.612 161.581 132.221 161.581 128.026C161.581 123.831 164.799 120.401 168.76 120.373C170.767 120.361 172.586 121.23 173.893 122.634L177.042 119.482C174.913 117.332 171.988 116 168.758 116C162.274 116 157 121.376 157 127.98C157 134.588 162.276 139.96 168.758 139.96C171.988 139.96 174.913 138.629 177.042 136.478L173.86 133.293H173.858ZM184.018 116.187H179.649V139.466H184.018V116.187ZM218.011 139.462L225.633 121.553H220.884L215.745 133.635L210.605 121.553H205.854L213.473 139.462H218.011ZM196.452 140C191.23 140 186.985 135.747 186.985 130.521C186.985 125.291 191.233 121.04 196.454 121.04C201.676 121.04 205.921 125.295 205.921 130.521C205.921 135.747 201.673 140 196.454 140H196.452ZM196.452 125.411C193.757 125.411 191.566 127.7 191.566 130.517C191.566 133.333 193.757 135.623 196.454 135.623C199.149 135.623 201.34 133.333 201.34 130.517C201.34 127.7 199.146 125.411 196.452 125.411V125.411ZM243.853 130.521C243.853 130.222 243.839 129.923 243.809 129.625C243.806 129.605 243.806 129.588 243.806 129.568C243.777 129.259 243.733 128.951 243.673 128.647V128.643C242.839 124.312 239.168 121.037 234.78 121.037C229.776 121.037 225.707 125.291 225.707 130.517C225.707 135.748 229.776 139.998 234.78 139.998C237.2 139.998 239.399 139.002 241.027 137.381L237.935 134.285C237.1 135.117 235.993 135.623 234.78 135.623C232.805 135.623 231.113 134.282 230.428 132.392H243.673C243.79 131.785 243.853 131.16 243.853 130.521C243.853 130.521 243.853 130.524 243.853 130.521V130.521ZM234.784 125.411C236.758 125.411 238.45 126.753 239.135 128.644H230.428C231.117 126.753 232.809 125.411 234.784 125.411ZM254.642 121.849C253.532 122.192 252.485 122.711 251.54 123.387C251.484 123.427 251.428 123.473 251.37 123.517V121.552H247.002V139.464H251.37V129.664C251.378 129.212 251.673 128.419 252.062 127.886C252.454 127.355 252.997 126.899 253.621 126.546C254.267 126.185 254.966 125.931 255.692 125.793C256.439 125.649 257.202 125.606 257.96 125.663L258 121.29C256.865 121.33 255.736 121.506 254.642 121.849V121.849Z" fill="white"/>
<g clip-path="url(#clip0_8_1)">
<path d="M136.294 122.357C135.22 121.196 133.954 120.231 132.551 119.502C132.025 116.451 130.5 113.661 128.214 111.572C125.7 109.27 122.414 107.995 119.005 108C115.596 107.996 112.31 109.271 109.796 111.572C107.511 113.662 105.985 116.451 105.459 119.502C104.056 120.232 102.79 121.198 101.716 122.357C99.3825 124.88 98.0604 128.174 98.0024 131.61C97.9241 135.05 99.1199 138.397 101.36 141.009C102.643 142.506 104.235 143.708 106.026 144.534C107.816 145.359 109.764 145.789 111.736 145.792C113.316 145.792 114.851 145.521 116.302 145.01C116.302 145.01 116.267 150 116.302 150L121.615 147.696L121.659 144.99C123.12 145.517 124.674 145.792 126.267 145.792C130.244 145.792 134.026 144.049 136.64 141.009C138.88 138.397 140.076 135.05 139.998 131.61C139.947 128.174 138.628 124.879 136.294 122.358V122.357ZM132.09 136.992C131.402 137.799 130.553 138.454 129.598 138.916C128.643 139.378 127.602 139.636 126.541 139.673C125.481 139.711 124.425 139.528 123.439 139.135C122.453 138.742 121.56 138.148 120.817 137.392C120.12 136.686 119.565 135.855 119.179 134.942C119.164 134.906 119.14 134.876 119.108 134.855C119.076 134.834 119.038 134.822 119 134.823C118.962 134.823 118.924 134.834 118.892 134.855C118.86 134.877 118.836 134.907 118.822 134.943C118.437 135.857 117.881 136.688 117.184 137.393C116.472 138.117 115.624 138.691 114.687 139.083C113.751 139.476 112.747 139.677 111.732 139.676C110.625 139.675 109.532 139.435 108.527 138.972C107.522 138.508 106.629 137.833 105.91 136.992C103.331 134 103.425 129.438 106.113 126.547C107.473 125.075 109.355 124.195 111.356 124.097C111.385 124.095 111.413 124.087 111.439 124.073C111.464 124.06 111.487 124.04 111.504 124.017C111.521 123.993 111.532 123.966 111.537 123.937C111.542 123.909 111.541 123.88 111.533 123.852C110.845 121.146 111.613 118.141 113.836 116.112C115.247 114.826 117.087 114.114 118.995 114.117C120.904 114.114 122.744 114.826 124.154 116.112C125.203 117.072 125.972 118.3 126.377 119.663C126.783 121.026 126.81 122.474 126.456 123.852C126.449 123.88 126.448 123.909 126.453 123.937C126.459 123.966 126.47 123.993 126.487 124.016C126.505 124.04 126.527 124.059 126.552 124.073C126.578 124.087 126.606 124.095 126.635 124.097C128.636 124.195 130.518 125.075 131.878 126.547C134.576 129.438 134.67 134.002 132.09 136.992V136.992Z" fill="white"/>
</g>
<defs>
<clipPath id="clip0_8_1">
<rect width="42" height="42" fill="white" transform="translate(98 108)"/>
</clipPath>
</defs>
</svg>
