<svg width="152" height="63" viewBox="0 0 152 63" fill="none" xmlns="http://www.w3.org/2000/svg">
<line x1="14" y1="39" x2="140" y2="39" stroke="white" stroke-width="2"/>
<path d="M24.7656 24.7305C24.7656 25.2695 24.7461 25.7422 24.707 26.1484C24.6758 26.5625 24.6289 26.9258 24.5664 27.2383C24.3789 28.0977 24.0117 28.8359 23.4648 29.4531C22.4336 30.6406 21.0156 31.2344 19.2109 31.2344C17.6875 31.2344 16.4336 30.8242 15.4492 30.0039C14.4336 29.1602 13.8477 27.9922 13.6914 26.5H16.3398C16.4414 27.0625 16.6094 27.4961 16.8438 27.8008C17.3906 28.5117 18.1875 28.8672 19.2344 28.8672C21.1641 28.8672 22.1289 27.6836 22.1289 25.3164V23.7227C21.082 24.793 19.875 25.3281 18.5078 25.3281C16.9531 25.3281 15.6797 24.7656 14.6875 23.6406C13.6875 22.5 13.1875 21.0742 13.1875 19.3633C13.1875 17.6992 13.6523 16.2852 14.582 15.1211C15.582 13.8867 16.9023 13.2695 18.543 13.2695C19.9805 13.2695 21.1758 13.8047 22.1289 14.875V13.5859H24.7656V24.7305ZM22.2344 19.3164C22.2344 18.207 21.9375 17.3203 21.3438 16.6562C20.7422 15.9766 19.9727 15.6367 19.0352 15.6367C18.0352 15.6367 17.2461 16.0078 16.668 16.75C16.1445 17.4141 15.8828 18.2734 15.8828 19.3281C15.8828 20.3672 16.1445 21.2188 16.668 21.8828C17.2383 22.6094 18.0273 22.9727 19.0352 22.9727C20.043 22.9727 20.8398 22.6055 21.4258 21.8711C21.9648 21.207 22.2344 20.3555 22.2344 19.3164ZM38.4883 19.9141H30.3086C30.3789 20.8516 30.6836 21.5977 31.2227 22.1523C31.7617 22.6992 32.4531 22.9727 33.2969 22.9727C33.9531 22.9727 34.4961 22.8164 34.9258 22.5039C35.3477 22.1914 35.8281 21.6133 36.3672 20.7695L38.5938 22.0117C38.25 22.5977 37.8867 23.1016 37.5039 23.5234C37.1211 23.9375 36.7109 24.2812 36.2734 24.5547C35.8359 24.8203 35.3633 25.0156 34.8555 25.1406C34.3477 25.2656 33.7969 25.3281 33.2031 25.3281C31.5 25.3281 30.1328 24.7812 29.1016 23.6875C28.0703 22.5859 27.5547 21.125 27.5547 19.3047C27.5547 17.5 28.0547 16.0391 29.0547 14.9219C30.0625 13.8203 31.3984 13.2695 33.0625 13.2695C34.7422 13.2695 36.0703 13.8047 37.0469 14.875C38.0156 15.9375 38.5 17.4102 38.5 19.293L38.4883 19.9141ZM35.7812 17.7578C35.4141 16.3516 34.5273 15.6484 33.1211 15.6484C32.8008 15.6484 32.5 15.6992 32.2188 15.8008C31.9375 15.8945 31.6797 16.0352 31.4453 16.2227C31.2188 16.4023 31.0234 16.6211 30.8594 16.8789C30.6953 17.1367 30.5703 17.4297 30.4844 17.7578H35.7812ZM44.3125 16.0469V25H41.6758V16.0469H40.5508V13.5859H41.6758V9.40234H44.3125V13.5859H46.3633V16.0469H44.3125ZM58.1992 13.5859V25H55.5625V13.5859H58.1992ZM55.1641 8.83984C55.1641 8.37891 55.332 7.98047 55.668 7.64453C56.0039 7.30859 56.4062 7.14062 56.875 7.14062C57.3516 7.14062 57.7578 7.30859 58.0938 7.64453C58.4297 7.97266 58.5977 8.375 58.5977 8.85156C58.5977 9.32812 58.4297 9.73438 58.0938 10.0703C57.7656 10.4062 57.3633 10.5742 56.8867 10.5742C56.4102 10.5742 56.0039 10.4062 55.668 10.0703C55.332 9.73438 55.1641 9.32422 55.1641 8.83984ZM61.5391 13.5859H64.1875V14.6406C65.1094 13.7266 66.1484 13.2695 67.3047 13.2695C68.6328 13.2695 69.668 13.6875 70.4102 14.5234C71.0508 15.2344 71.3711 16.3945 71.3711 18.0039V25H68.7227V18.625C68.7227 17.5 68.5664 16.7227 68.2539 16.293C67.9492 15.8555 67.3945 15.6367 66.5898 15.6367C65.7148 15.6367 65.0938 15.9258 64.7266 16.5039C64.3672 17.0742 64.1875 18.0703 64.1875 19.4922V25H61.5391V13.5859ZM84.8359 16.0469V25H82.1992V16.0469H81.0742V13.5859H82.1992V9.40234H84.8359V13.5859H86.8867V16.0469H84.8359ZM88.3047 19.2109C88.3047 17.5625 88.8945 16.1602 90.0742 15.0039C91.2539 13.8477 92.6914 13.2695 94.3867 13.2695C96.0898 13.2695 97.5352 13.8516 98.7227 15.0156C99.8945 16.1797 100.48 17.6094 100.48 19.3047C100.48 21.0156 99.8906 22.4492 98.7109 23.6055C97.5234 24.7539 96.0664 25.3281 94.3398 25.3281C92.6289 25.3281 91.1953 24.7422 90.0391 23.5703C88.8828 22.4141 88.3047 20.9609 88.3047 19.2109ZM91 19.2578C91 20.3984 91.3047 21.3008 91.9141 21.9648C92.5391 22.6367 93.3633 22.9727 94.3867 22.9727C95.418 22.9727 96.2422 22.6406 96.8594 21.9766C97.4766 21.3125 97.7852 20.4258 97.7852 19.3164C97.7852 18.207 97.4766 17.3203 96.8594 16.6562C96.2344 15.9844 95.4102 15.6484 94.3867 15.6484C93.3789 15.6484 92.5625 15.9844 91.9375 16.6562C91.3125 17.3281 91 18.1953 91 19.2578ZM105.918 13.5859V20.1367C105.918 22.0273 106.664 22.9727 108.156 22.9727C109.648 22.9727 110.395 22.0273 110.395 20.1367V13.5859H113.031V20.1953C113.031 21.1094 112.918 21.8984 112.691 22.5625C112.473 23.1562 112.094 23.6914 111.555 24.168C110.664 24.9414 109.531 25.3281 108.156 25.3281C106.789 25.3281 105.66 24.9414 104.77 24.168C104.223 23.6914 103.836 23.1562 103.609 22.5625C103.391 22.0312 103.281 21.2422 103.281 20.1953V13.5859H105.918ZM125.242 14.0781V17.582C124.641 16.8477 124.102 16.3438 123.625 16.0703C123.156 15.7891 122.605 15.6484 121.973 15.6484C120.98 15.6484 120.156 15.9961 119.5 16.6914C118.844 17.3867 118.516 18.2578 118.516 19.3047C118.516 20.375 118.832 21.2539 119.465 21.9414C120.105 22.6289 120.922 22.9727 121.914 22.9727C122.547 22.9727 123.105 22.8359 123.59 22.5625C124.059 22.2969 124.609 21.7812 125.242 21.0156V24.4961C124.172 25.0508 123.102 25.3281 122.031 25.3281C120.266 25.3281 118.789 24.7578 117.602 23.6172C116.414 22.4688 115.82 21.043 115.82 19.3398C115.82 17.6367 116.422 16.1992 117.625 15.0273C118.828 13.8555 120.305 13.2695 122.055 13.2695C123.18 13.2695 124.242 13.5391 125.242 14.0781ZM128.43 5.20703H131.066V14.5352C132.004 13.6914 133.039 13.2695 134.172 13.2695C135.461 13.2695 136.492 13.6875 137.266 14.5234C137.922 15.25 138.25 16.4102 138.25 18.0039V25H135.613V18.25C135.613 17.3359 135.449 16.6758 135.121 16.2695C134.801 15.8555 134.281 15.6484 133.562 15.6484C132.641 15.6484 131.992 15.9336 131.617 16.5039C131.25 17.082 131.066 18.0742 131.066 19.4805V25H128.43V5.20703Z" fill="white"/>
</svg>
