<svg width="349" height="261" viewBox="0 0 349 261" fill="none" xmlns="http://www.w3.org/2000/svg">
<rect x="1.5" y="1.5" width="346" height="258" fill="#3842A5" stroke="white" stroke-width="3"/>
<path d="M149.837 113.237H159.292C162.169 113.237 164.308 113.933 165.708 115.325C167.109 116.718 167.81 118.843 167.81 121.702C167.81 124.636 167.084 126.861 165.633 128.378C164.207 129.87 162.094 130.616 159.292 130.616H153.439V138.895H149.837V113.237ZM159.255 127.483C162.507 127.483 164.132 125.556 164.132 121.702C164.132 119.838 163.745 118.483 162.969 117.637C162.194 116.767 160.956 116.332 159.255 116.332H153.439V127.483H159.255Z" fill="white"/>
<path d="M188.125 132.891H177.694L176.081 138.895H172.516L179.195 113.237H186.624L193.303 138.895H189.739L188.125 132.891ZM178.445 129.721H187.374L183.885 116.258H181.934L178.445 129.721Z" fill="white"/>
<path d="M215.276 135.725V138.895H200.944V113.237H204.546V135.725H215.276Z" fill="white"/>
<path d="M236.909 135.725V138.895H222.577V113.237H226.179V135.725H236.909Z" fill="white"/>
<path d="M257.567 132.891H247.136L245.523 138.895H241.959L248.637 113.237H256.066L262.745 138.895H259.18L257.567 132.891ZM247.886 129.721H256.816L253.327 116.258H251.376L247.886 129.721Z" fill="white"/>
<path fill-rule="evenodd" clip-rule="evenodd" d="M134.644 126.066H110.256L107.836 123.66C107.831 123.656 107.827 123.651 107.822 123.647L90.3175 106.248C88.1492 104.093 89.6848 100.408 92.7512 100.408H108.83C109.737 100.408 110.606 100.763 111.25 101.396L133.649 123.66C134.313 124.326 134.644 125.196 134.644 126.066Z" fill="#00FDEE"/>
<path fill-rule="evenodd" clip-rule="evenodd" d="M134.644 126.066H110.256L107.836 128.471C107.831 128.475 107.827 128.48 107.822 128.485L90.3175 145.884C88.1492 148.039 89.6848 151.724 92.7512 151.724H108.83C109.737 151.724 110.606 151.368 111.25 150.735L133.65 128.471C134.313 127.805 134.644 126.935 134.644 126.066Z" fill="white"/>
<path d="M84.5886 115.827C84.5886 114.303 86.4423 113.54 87.5264 114.617L97.9743 125.002C98.6463 125.67 98.6463 126.753 97.9743 127.421L87.5264 137.806C86.4423 138.884 84.5886 138.12 84.5886 136.596V115.827Z" fill="white"/>
</svg>
