<svg width="349" height="261" viewBox="0 0 349 261" fill="none" xmlns="http://www.w3.org/2000/svg">
<rect x="1.5" y="1.5" width="346" height="258" fill="#3842A5" stroke="white" stroke-width="3"/>
<path d="M156.721 112.421H163.825C165.986 112.421 167.593 112.935 168.646 113.963C169.698 114.991 170.225 116.561 170.225 118.673C170.225 120.839 169.68 122.482 168.589 123.602C167.518 124.704 165.93 125.255 163.825 125.255H159.427V131.368H156.721V112.421ZM163.797 122.941C166.24 122.941 167.462 121.518 167.462 118.673C167.462 117.296 167.17 116.295 166.588 115.671C166.005 115.028 165.075 114.707 163.797 114.707H159.427V122.941H163.797Z" fill="white"/>
<path d="M185.489 126.935H177.651L176.439 131.368H173.761L178.779 112.421H184.361L189.379 131.368H186.701L185.489 126.935ZM178.216 124.594H184.924L182.303 114.652H180.837L178.216 124.594Z" fill="white"/>
<path d="M205.889 129.028V131.368H195.12V112.421H197.826V129.028H205.889Z" fill="white"/>
<path d="M222.143 129.028V131.368H211.374V112.421H214.08V129.028H222.143Z" fill="white"/>
<path d="M237.664 126.935H229.827L228.614 131.368H225.936L230.954 112.421H236.536L241.554 131.368H238.876L237.664 126.935ZM230.39 124.594H237.1L234.478 114.652H233.012L230.39 124.594Z" fill="white"/>
<path fill-rule="evenodd" clip-rule="evenodd" d="M145.306 121.895H126.981L125.163 120.118C125.16 120.115 125.156 120.112 125.153 120.108L112.001 107.26C110.372 105.669 111.525 102.947 113.829 102.947H125.91C126.591 102.947 127.245 103.21 127.729 103.677L144.558 120.118C145.056 120.61 145.306 121.253 145.306 121.895Z" fill="#00FDEE"/>
<path fill-rule="evenodd" clip-rule="evenodd" d="M145.306 121.895H126.981L125.163 123.671C125.16 123.674 125.156 123.678 125.153 123.681L112.001 136.529C110.372 138.121 111.525 140.842 113.829 140.842H125.91C126.591 140.842 127.245 140.58 127.729 140.112L144.559 123.671C145.057 123.179 145.306 122.537 145.306 121.895Z" fill="white"/>
<path d="M107.696 114.334C107.696 113.208 109.089 112.645 109.904 113.44L117.754 121.109C118.259 121.603 118.259 122.402 117.754 122.896L109.904 130.564C109.089 131.36 107.696 130.796 107.696 129.671V114.334Z" fill="white"/>
</svg>
