<svg width="349" height="261" viewBox="0 0 349 261" fill="none" xmlns="http://www.w3.org/2000/svg">
<rect x="1.5" y="1.5" width="346" height="258" fill="#F9D749" stroke="#E9E8E8" stroke-width="3"/>
<path d="M99.5 146.054V148.652H121.003V146.054C119.344 146.054 117.797 145.888 116.415 145.501C114.978 145.114 114.093 144.562 113.706 143.843V135.883H116.802C120.395 135.883 123.38 135.275 125.701 134.059C128.023 132.843 129.681 131.24 130.732 129.25C131.782 127.26 132.335 125.104 132.335 122.783C132.335 119.687 131.34 117.31 129.405 115.707C127.415 114.104 124.375 113.275 120.174 113.275H99.5V115.873C100.827 115.873 102.043 116.094 103.148 116.481C104.199 116.868 104.972 117.421 105.415 118.084V143.843C104.972 144.562 104.199 145.114 103.148 145.501C102.043 145.888 100.827 146.054 99.5 146.054ZM115.364 133.009H113.706V116.094H116.304C118.847 116.094 120.726 116.702 121.942 117.863C123.159 119.079 123.822 120.903 123.822 123.446C123.822 126.431 123.103 128.808 121.721 130.466C120.284 132.18 118.184 133.009 115.364 133.009Z" fill="#131635"/>
<path d="M142 147.768C144.322 149.039 147.031 149.647 150.126 149.647C153.553 149.647 156.428 148.929 158.749 147.491C161.071 146.054 162.784 144.119 163.89 141.798C164.996 139.476 165.548 136.933 165.548 134.17C165.548 131.406 164.885 128.918 163.669 126.707C162.453 124.496 160.684 122.783 158.362 121.511C156.041 120.24 153.332 119.577 150.237 119.577C146.809 119.577 143.99 120.295 141.669 121.732C139.347 123.17 137.633 125.049 136.528 127.371C135.422 129.692 134.87 132.235 134.87 134.944C134.87 137.763 135.478 140.305 136.694 142.516C137.91 144.728 139.679 146.496 142 147.768ZM155.598 144.009C154.603 145.888 153.111 146.828 151.121 146.828C149.684 146.828 148.357 146.331 147.196 145.336C145.98 144.341 145.041 142.738 144.377 140.637C143.659 138.537 143.327 135.994 143.327 132.898C143.327 129.582 143.769 126.984 144.764 125.104C145.759 123.225 147.252 122.285 149.242 122.285C150.679 122.285 152.005 122.838 153.222 123.833C154.382 124.883 155.322 126.431 156.041 128.531C156.704 130.632 157.091 133.175 157.091 136.215C157.091 139.531 156.593 142.13 155.598 144.009Z" fill="#131635"/>
<path d="M167.624 146.109V148.652H185.424V146.109C184.318 146.109 183.268 145.943 182.383 145.556C181.444 145.225 180.836 144.727 180.504 144.064V113.717C180.504 111.616 180.614 109.903 180.836 108.576L180.117 107.802C179.067 108.853 177.795 109.626 176.358 110.124C174.921 110.677 173.373 110.898 171.715 110.898H167.845V113.385C168.84 113.385 169.78 113.606 170.665 113.938C171.549 114.325 172.157 114.822 172.544 115.486V144.064C172.212 144.727 171.549 145.225 170.665 145.556C169.78 145.943 168.73 146.109 167.624 146.109Z" fill="#131635"/>
<path d="M187.166 146.109V148.652H204.965V146.109C203.859 146.109 202.809 145.943 201.925 145.556C200.985 145.225 200.377 144.727 200.045 144.064V113.717C200.045 111.616 200.156 109.903 200.377 108.576L199.658 107.802C198.608 108.853 197.337 109.626 195.899 110.124C194.462 110.677 192.914 110.898 191.256 110.898H187.387V113.385C188.382 113.385 189.321 113.606 190.206 113.938C191.09 114.325 191.698 114.822 192.085 115.486V144.064C191.754 144.727 191.09 145.225 190.206 145.556C189.321 145.943 188.271 146.109 187.166 146.109Z" fill="#131635"/>
<path d="M211.516 113.938C212.456 114.712 213.672 115.044 215.164 115.044C216.712 115.044 217.983 114.601 218.923 113.717C219.808 112.832 220.305 111.782 220.305 110.456C220.305 109.129 219.808 108.079 218.813 107.36C217.818 106.642 216.601 106.255 215.164 106.255C213.506 106.255 212.29 106.752 211.406 107.637C210.521 108.521 210.134 109.626 210.134 110.843C210.134 112.169 210.576 113.219 211.516 113.938ZM206.707 146.109V148.652H224.506V146.109C223.401 146.109 222.35 145.943 221.466 145.556C220.526 145.225 219.918 144.727 219.586 144.064V123.943C219.586 121.787 219.697 120.35 219.918 119.632L219.199 118.913C218.039 119.521 216.933 119.908 215.828 120.129C214.722 120.35 213.451 120.461 212.069 120.461H206.983V122.948C207.923 122.948 208.808 123.169 209.692 123.501C210.576 123.833 211.184 124.385 211.627 125.049V144.064C211.295 144.727 210.632 145.225 209.747 145.556C208.863 145.943 207.813 146.109 206.707 146.109Z" fill="#131635"/>
<path d="M233.439 147.768C235.65 149.039 238.304 149.647 241.289 149.647C244.937 149.647 247.867 148.929 250.022 147.381C252.123 145.833 253.615 144.23 254.5 142.516L253.45 141.632C252.51 142.516 251.349 143.29 249.912 143.954C248.475 144.617 246.816 144.893 244.937 144.893C242.063 144.893 239.686 143.898 237.862 141.908C236.037 139.918 235.098 137.044 235.098 133.175H253.947L254.058 131.682C254.168 129.305 253.781 127.205 252.897 125.381C251.957 123.556 250.52 122.119 248.641 121.124C246.706 120.129 244.439 119.577 241.786 119.577C238.635 119.577 235.927 120.295 233.605 121.677C231.284 123.059 229.57 124.883 228.354 127.205C227.138 129.526 226.53 132.069 226.53 134.833C226.53 137.707 227.083 140.305 228.299 142.516C229.515 144.783 231.228 146.552 233.439 147.768ZM246.761 130.687H234.932C234.987 127.979 235.485 125.878 236.424 124.33C237.364 122.783 238.746 122.009 240.57 122.009C242.449 122.009 243.942 122.783 245.103 124.33C246.264 125.878 246.816 128.034 246.761 130.687Z" fill="#131635"/>
<path d="M211.512 113.934C212.451 114.707 213.667 115.039 215.16 115.039C216.708 115.039 217.979 114.597 218.919 113.713C219.803 112.828 220.301 111.778 220.301 110.451C220.301 109.125 219.803 108.074 218.808 107.356C217.813 106.637 216.597 106.25 215.16 106.25C213.502 106.25 212.285 106.748 211.401 107.632C210.517 108.516 210.13 109.622 210.13 110.838C210.13 112.165 210.572 113.215 211.512 113.934Z" fill="#75C8CC"/>
</svg>
